{
  "accessors": [
    {
      "bufferView": 2,
      "componentType": 5126,
      "count": 8,
      "max": [
        4.771100997924805,
        -0.3523710072040558,
        0.23921999335289001
      ],
      "min": [
        2.7796449661254883,
        -0.3523710072040558,
        0.19781699776649475
      ],
      "type": "VEC3"
    },
    {
      "bufferView": 2,
      "byteOffset": 96,
      "componentType": 5126,
      "count": 8,
      "max": [
        0.0,
        -0.9999999403953552,
        0.0
      ],
      "min": [
        0.0,
        -1.0,
        0.0
      ],
      "type": "VEC3"
    },
    {
      "bufferView": 1,
      "componentType": 5126,
      "count": 8,
      "max": [
        1.1434869766235352,
        0.8043299913406372
      ],
      "min": [
        -0.09389600157737732,
        0.1956699937582016
      ],
      "type": "VEC2"
    },
    {
      "bufferView": 0,
      "componentType": 5125,
      "count": 18,
      "type": "SCALAR"
    },
    {
      "bufferView": 2,
      "byteOffset": 192,
      "componentType": 5126,
      "count": 92,
      "max": [
        4.771101951599121,
        0.9319170117378235,
        0.23921999335289001
      ],
      "min": [
        2.7796449661254883,
        -0.37494200468063354,
        0.023476000875234604
      ],
      "type": "VEC3"
    },
    {
      "bufferView": 2,
      "byteOffset": 1296,
      "componentType": 5126,
      "count": 92,
      "max": [
        1.0,
        1.0,
        1.0
      ],
      "min": [
        -1.0,
        -1.0,
        -1.0
      ],
      "type": "VEC3"
    },
    {
      "bufferView": 1,
      "byteOffset": 64,
      "componentType": 5126,
      "count": 92,
      "max": [
        1.029291033744812,
        0.7172160148620605
      ],
      "min": [
        -0.03549899905920029,
        0.06547199934720993
      ],
      "type": "VEC2"
    },
    {
      "bufferView": 0,
      "byteOffset": 72,
      "componentType": 5125,
      "count": 234,
      "type": "SCALAR"
    },
    {
      "bufferView": 2,
      "byteOffset": 2400,
      "componentType": 5126,
      "count": 146,
      "max": [
        4.571084976196289,
        -0.3642120063304901,
        0.18675300478935242
      ],
      "min": [
        4.4398651123046875,
        -0.37314701080322266,
        0.17733000218868256
      ],
      "type": "VEC3"
    },
    {
      "bufferView": 2,
      "byteOffset": 4152,
      "componentType": 5126,
      "count": 146,
      "max": [
        0.9427213668823242,
        0.9990817904472351,
        0.9821021556854248
      ],
      "min": [
        -0.9614549279212952,
        -0.9990824460983276,
        -0.9820941090583801
      ],
      "type": "VEC3"
    },
    {
      "bufferView": 1,
      "byteOffset": 800,
      "componentType": 5126,
      "count": 146,
      "max": [
        1.0,
        1.0
      ],
      "min": [
        0.0,
        0.0
      ],
      "type": "VEC2"
    },
    {
      "bufferView": 0,
      "byteOffset": 1008,
      "componentType": 5125,
      "count": 264,
      "type": "SCALAR"
    },
    {
      "bufferView": 2,
      "byteOffset": 5904,
      "componentType": 5126,
      "count": 595,
      "max": [
        4.5112199783325195,
        -0.36408698558807373,
        0.18688499927520752
      ],
      "min": [
        2.8811841011047363,
        -0.37327298521995544,
        0.17719699442386627
      ],
      "type": "VEC3"
    },
    {
      "bufferView": 2,
      "byteOffset": 13044,
      "componentType": 5126,
      "count": 595,
      "max": [
        1.0,
        0.9985835552215576,
        0.9828071594238281
      ],
      "min": [
        -1.0,
        -0.9985833168029785,
        -0.9828089475631714
      ],
      "type": "VEC3"
    },
    {
      "bufferView": 1,
      "byteOffset": 1968,
      "componentType": 5126,
      "count": 595,
      "max": [
        1.0,
        1.0
      ],
      "min": [
        0.0,
        0.0
      ],
      "type": "VEC2"
    },
    {
      "bufferView": 0,
      "byteOffset": 2064,
      "componentType": 5125,
      "count": 1056,
      "type": "SCALAR"
    },
    {
      "bufferView": 2,
      "byteOffset": 20184,
      "componentType": 5126,
      "count": 31,
      "max": [
        4.705883979797363,
        -0.3453789949417114,
        0.19672800600528717
      ],
      "min": [
        2.841728925704956,
        -0.37504300475120544,
        0.15115800499916077
      ],
      "type": "VEC3"
    },
    {
      "bufferView": 2,
      "byteOffset": 20556,
      "componentType": 5126,
      "count": 31,
      "max": [
        1.0,
        0.0,
        1.0
      ],
      "min": [
        -1.0,
        -1.0,
        -0.9999999403953552
      ],
      "type": "VEC3"
    },
    {
      "bufferView": 1,
      "byteOffset": 6728,
      "componentType": 5126,
      "count": 31,
      "max": [
        1.0,
        1.0
      ],
      "min": [
        0.0,
        0.0
      ],
      "type": "VEC2"
    },
    {
      "bufferView": 0,
      "byteOffset": 6288,
      "componentType": 5125,
      "count": 48,
      "type": "SCALAR"
    },
    {
      "bufferView": 2,
      "byteOffset": 20928,
      "componentType": 5126,
      "count": 4628,
      "max": [
        2.941894054412842,
        -0.35069799423217773,
        0.22968800365924835
      ],
      "min": [
        2.8111789226531982,
        -0.35477200150489807,
        0.20873700082302094
      ],
      "type": "VEC3"
    },
    {
      "bufferView": 2,
      "byteOffset": 76464,
      "componentType": 5126,
      "count": 4628,
      "max": [
        0.999985933303833,
        1.0,
        0.9999850988388062
      ],
      "min": [
        -0.9999851584434509,
        -1.0,
        -0.9999850988388062
      ],
      "type": "VEC3"
    },
    {
      "bufferView": 1,
      "byteOffset": 6976,
      "componentType": 5126,
      "count": 4628,
      "max": [
        1.0,
        1.0
      ],
      "min": [
        0.0,
        0.0
      ],
      "type": "VEC2"
    },
    {
      "bufferView": 0,
      "byteOffset": 6480,
      "componentType": 5125,
      "count": 7380,
      "type": "SCALAR"
    },
    {
      "bufferView": 2,
      "byteOffset": 132000,
      "componentType": 5126,
      "count": 440,
      "max": [
        4.771101951599121,
        0.9319170117378235,
        0.25873100757598877
      ],
      "min": [
        2.7796449661254883,
        -0.37494200468063354,
        -0.00019500000053085387
      ],
      "type": "VEC3"
    },
    {
      "bufferView": 2,
      "byteOffset": 137280,
      "componentType": 5126,
      "count": 440,
      "max": [
        0.9978091716766357,
        0.9978095889091492,
        1.0
      ],
      "min": [
        -0.997809112071991,
        -0.9978091716766357,
        -1.0
      ],
      "type": "VEC3"
    },
    {
      "bufferView": 1,
      "byteOffset": 44000,
      "componentType": 5126,
      "count": 440,
      "max": [
        1.0,
        1.0
      ],
      "min": [
        0.0,
        0.0
      ],
      "type": "VEC2"
    },
    {
      "bufferView": 0,
      "byteOffset": 36000,
      "componentType": 5125,
      "count": 708,
      "type": "SCALAR"
    }
  ],
  "asset": {
    "extras": {
      "author": "1-3D.com (https://sketchfab.com/1-3D.com)",
      "license": "CC-BY-SA-4.0 (http://creativecommons.org/licenses/by-sa/4.0/)",
      "source": "https://sketchfab.com/3d-models/dvd-player-2c127277cfb94736b6c4051b61f9968c",
      "title": "Dvd player"
    },
    "generator": "Sketchfab-12.78.0",
    "version": "2.0"
  },
  "bufferViews": [
    {
      "buffer": 0,
      "byteLength": 38832,
      "name": "floatBufferViews",
      "target": 34963
    },
    {
      "buffer": 0,
      "byteLength": 47520,
      "byteOffset": 38832,
      "byteStride": 8,
      "name": "floatBufferViews",
      "target": 34962
    },
    {
      "buffer": 0,
      "byteLength": 142560,
      "byteOffset": 86352,
      "byteStride": 12,
      "name": "floatBufferViews",
      "target": 34962
    }
  ],
  "buffers": [
    {
      "byteLength": 228912,
      "uri": "scene.bin"
    }
  ],
  "images": [
    {
      "uri": "textures/dvdblack_dvd_time.jpg_baseColor.jpeg"
    },
    {
      "uri": "textures/dvdbox_extras_dvd.tga_baseColor.png"
    }
  ],
  "materials": [
    {
      "doubleSided": true,
      "name": "dvdblack_dvd_time.jpg",
      "pbrMetallicRoughness": {
        "baseColorTexture": {
          "index": 0
        },
        "metallicFactor": 0.0,
        "roughnessFactor": 0.7511767794212776
      }
    },
    {
      "doubleSided": true,
      "name": "dvdbox_extras_dvd.tga",
      "pbrMetallicRoughness": {
        "baseColorTexture": {
          "index": 1
        },
        "metallicFactor": 0.0,
        "roughnessFactor": 0.84879520962199
      }
    },
    {
      "doubleSided": true,
      "name": "dvdbut_plays",
      "pbrMetallicRoughness": {
        "baseColorFactor": [
          0.574563,
          0.574563,
          0.574563,
          1.0
        ],
        "metallicFactor": 0.0,
        "roughnessFactor": 0.8384393914213657
      }
    },
    {
      "doubleSided": true,
      "name": "dvdbuttons",
      "pbrMetallicRoughness": {
        "baseColorFactor": [
          0.460173,
          0.460173,
          0.460173,
          1.0
        ],
        "metallicFactor": 0.0,
        "roughnessFactor": 0.842485082549181
      }
    },
    {
      "doubleSided": true,
      "name": "dvdbuttonsbox",
      "pbrMetallicRoughness": {
        "baseColorFactor": [
          0.352139,
          0.352139,
          0.352139,
          1.0
        ],
        "metallicFactor": 0.0,
        "roughnessFactor": 0.7478346749436449
      }
    },
    {
      "doubleSided": true,
      "name": "dvdgray",
      "pbrMetallicRoughness": {
        "baseColorFactor": [
          0.28859,
          0.28859,
          0.28859,
          1.0
        ],
        "metallicFactor": 0.0,
        "roughnessFactor": 0.84879520962199
      }
    },
    {
      "doubleSided": true,
      "name": "metall",
      "pbrMetallicRoughness": {
        "baseColorFactor": [
          0.456153,
          0.456153,
          0.456153,
          1.0
        ],
        "metallicFactor": 0.0,
        "roughnessFactor": 0.54248777043668
      }
    }
  ],
  "meshes": [
    {
      "name": "Object_0",
      "primitives": [
        {
          "attributes": {
            "NORMAL": 1,
            "POSITION": 0,
            "TEXCOORD_0": 2
          },
          "indices": 3,
          "material": 0,
          "mode": 4
        }
      ]
    },
    {
      "name": "Object_1",
      "primitives": [
        {
          "attributes": {
            "NORMAL": 5,
            "POSITION": 4,
            "TEXCOORD_0": 6
          },
          "indices": 7,
          "material": 1,
          "mode": 4
        }
      ]
    },
    {
      "name": "Object_2",
      "primitives": [
        {
          "attributes": {
            "NORMAL": 9,
            "POSITION": 8,
            "TEXCOORD_0": 10
          },
          "indices": 11,
          "material": 2,
          "mode": 4
        }
      ]
    },
    {
      "name": "Object_3",
      "primitives": [
        {
          "attributes": {
            "NORMAL": 13,
            "POSITION": 12,
            "TEXCOORD_0": 14
          },
          "indices": 15,
          "material": 3,
          "mode": 4
        }
      ]
    },
    {
      "name": "Object_4",
      "primitives": [
        {
          "attributes": {
            "NORMAL": 17,
            "POSITION": 16,
            "TEXCOORD_0": 18
          },
          "indices": 19,
          "material": 4,
          "mode": 4
        }
      ]
    },
    {
      "name": "Object_5",
      "primitives": [
        {
          "attributes": {
            "NORMAL": 21,
            "POSITION": 20,
            "TEXCOORD_0": 22
          },
          "indices": 23,
          "material": 6,
          "mode": 4
        }
      ]
    },
    {
      "name": "Object_6",
      "primitives": [
        {
          "attributes": {
            "NORMAL": 25,
            "POSITION": 24,
            "TEXCOORD_0": 26
          },
          "indices": 27,
          "material": 5,
          "mode": 4
        }
      ]
    }
  ],
  "nodes": [
    {
      "children": [
        1
      ],
      "matrix": [
        1.0,
        0.0,
        0.0,
        0.0,
        0.0,
        2.220446049250313e-16,
        -1.0,
        0.0,
        0.0,
        1.0,
        2.220446049250313e-16,
        0.0,
        0.0,
        0.0,
        0.0,
        1.0
      ],
      "name": "Sketchfab_model"
    },
    {
      "children": [
        2,
        3,
        4,
        5,
        6,
        7,
        8
      ],
      "name": "dvd.obj.cleaner.materialmerger.gles"
    },
    {
      "mesh": 0,
      "name": "Object_2"
    },
    {
      "mesh": 1,
      "name": "Object_3"
    },
    {
      "mesh": 2,
      "name": "Object_4"
    },
    {
      "mesh": 3,
      "name": "Object_5"
    },
    {
      "mesh": 4,
      "name": "Object_6"
    },
    {
      "mesh": 5,
      "name": "Object_7"
    },
    {
      "mesh": 6,
      "name": "Object_8"
    }
  ],
  "samplers": [
    {
      "magFilter": 9729,
      "minFilter": 9987,
      "wrapS": 10497,
      "wrapT": 10497
    }
  ],
  "scene": 0,
  "scenes": [
    {
      "name": "Sketchfab_Scene",
      "nodes": [
        0
      ]
    }
  ],
  "textures": [
    {
      "sampler": 0,
      "source": 0
    },
    {
      "sampler": 0,
      "source": 1
    }
  ]
}
